<svg width="34" height="34" viewBox="0 0 34 34" fill="none" xmlns="http://www.w3.org/2000/svg">
<path d="M30.7992 28.1562C28.8167 24.741 25.6433 22.1777 21.8875 20.9578C23.6877 19.8873 25.0867 18.2553 25.8695 16.3126C26.6523 14.3699 26.7757 12.2239 26.2205 10.2043C25.6654 8.18473 24.4626 6.40325 22.7968 5.13356C21.1311 3.86387 19.0945 3.1762 17 3.1762C14.9055 3.1762 12.8689 3.86387 11.2032 5.13356C9.53741 6.40325 8.33458 8.18473 7.77946 10.2043C7.22435 12.2239 7.34767 14.3699 8.13047 16.3126C8.91327 18.2553 10.3123 19.8873 12.1125 20.9578C8.35669 22.1777 5.18332 24.741 3.20078 28.1562C3.11763 28.2769 3.06032 28.4134 3.03247 28.5573C3.00461 28.7011 3.00681 28.8492 3.03892 28.9921C3.07104 29.1351 3.13237 29.2698 3.21907 29.388C3.30577 29.5061 3.41596 29.605 3.54272 29.6785C3.66948 29.7519 3.81006 29.7984 3.95565 29.815C4.10123 29.8315 4.24866 29.8178 4.38867 29.7746C4.52868 29.7314 4.65826 29.6597 4.76924 29.5641C4.88023 29.4684 4.97023 29.3509 5.0336 29.2187C6.24801 27.1203 7.9929 25.3781 10.0932 24.1669C12.1936 22.9557 14.5755 22.3181 17 22.3181C19.4245 22.3181 21.8064 22.9557 23.9068 24.1669C26.0071 25.3781 27.752 27.1203 28.9664 29.2187C29.0298 29.3509 29.1198 29.4684 29.2308 29.5641C29.3417 29.6597 29.4713 29.7314 29.6113 29.7746C29.7513 29.8178 29.8988 29.8315 30.0444 29.815C30.1899 29.7984 30.3305 29.7519 30.4573 29.6785C30.584 29.605 30.6942 29.5061 30.7809 29.388C30.8676 29.2698 30.929 29.1351 30.9611 28.9921C30.9932 28.8492 30.9954 28.7011 30.9675 28.5573C30.9397 28.4134 30.8824 28.2769 30.7992 28.1562V28.1562ZM9.5625 12.75C9.5625 11.279 9.9987 9.84103 10.8159 8.61794C11.6332 7.39485 12.7948 6.44157 14.1538 5.87864C15.5128 5.31572 17.0083 5.16843 18.451 5.45541C19.8937 5.74238 21.219 6.45074 22.2591 7.49089C23.2993 8.53104 24.0076 9.85628 24.2946 11.299C24.5816 12.7417 24.4343 14.2372 23.8714 15.5962C23.3084 16.9552 22.3551 18.1168 21.1321 18.9341C19.909 19.7513 18.471 20.1875 17 20.1875C15.0275 20.1875 13.1357 19.4039 11.7409 18.0091C10.3461 16.6143 9.5625 14.7225 9.5625 12.75Z" fill="#fcb500"/>
</svg>
